<svg fill="none" height="24" width="24" xmlns="http://www.w3.org/2000/svg" viewBox="0 0 44 61">
	<g fill="currentColor">
		<path d="M22,3.7c1.5,0,3,0.1,4.5,0.2l-1.2,5.8c-1.1-0.1-2.2-0.1-3.3-0.1c-1.1,0-2.2,0-3.3,0.1l-1.2-5.8C19,3.8,20.5,3.7,22,3.7
			M22,0.7c-2.4,0-4.8,0.1-7.1,0.4c-0.3,0-0.5,0.2-0.7,0.4C14.1,1.7,14,2,14.1,2.3l2,9.8c0.1,0.5,0.5,0.8,1,0.8c0,0,0.1,0,0.1,0
			c1.5-0.1,3.2-0.2,4.9-0.2c1.6,0,3.1,0.1,4.9,0.2c0,0,0.1,0,0.1,0c0.5,0,0.9-0.3,1-0.8l2-9.8c0.1-0.3,0-0.6-0.2-0.8
			c-0.2-0.2-0.4-0.4-0.7-0.4C26.6,0.9,24.3,0.7,22,0.7L22,0.7z"/>
		<path d="M21.8,21.6c0.4,0,0.7,0,1.1,0c9.8,0.5,17.8,8.9,17.9,18.5c0.1,6.7-3.4,13-9.2,16.4C30.9,57,30,57.3,29,57.3H15
			c-0.9,0-1.8-0.2-2.6-0.7C6.7,53.2,3.2,47,3.2,40.4c0-5.3,2.1-10.2,5.9-13.8C12.5,23.4,17,21.6,21.8,21.6 M17.4,53.3h9.2
			c2.3,0,4.5-0.9,6-2.5c2.8-2.8,4.3-6.5,4.3-10.4c0-4.4-1.9-8.5-5.3-11.4c-2.7-2.3-6.1-3.5-9.7-3.5c-0.8,0-1.7,0.1-2.5,0.2
			c-4.7,0.8-8.7,3.8-10.8,8c-2.9,5.8-1.8,12.4,2.6,17C12.9,52.4,15.1,53.3,17.4,53.3 M21.8,18.6c-5.5,0-10.8,2.1-14.8,5.9
			c-4.4,4.2-6.8,9.8-6.8,15.9c0,7.6,4.1,14.8,10.7,18.8c1.2,0.7,2.6,1.1,4.1,1.1H29c1.5,0,2.9-0.4,4.1-1.1c6.7-4,10.8-11.3,10.7-19.1
			C43.7,28.9,34.4,19.2,23,18.6C22.6,18.6,22.2,18.6,21.8,18.6L21.8,18.6z M17.4,50.3c-1.5,0-2.9-0.6-4-1.7c-3.6-3.7-4.4-9-2.1-13.6
			c1.7-3.4,4.9-5.8,8.6-6.4c0.7-0.1,1.3-0.2,2-0.2c2.8,0,5.6,1,7.7,2.8c2.7,2.3,4.2,5.6,4.2,9.1c0,3.1-1.2,6.1-3.4,8.3
			c-1,1-2.4,1.6-3.9,1.6H17.4L17.4,50.3z"/>
		<path d="M34.1,7c0.2,0.1,0.5,0.1,0.7,0.2l0,0l0,0c0.6,0.1,1,0.7,1,1.1l0,0.1l0,0.1c0,2.9-0.1,5.9-0.3,9c-0.6-0.4-1.2-0.7-1.9-1
			c0.1-1.7,0.2-3.3,0.2-4.9L34,9l-0.3-0.1L34.1,7 M31.7,3.5l-1.6,7.8c0.3,0,0.5,0.1,0.8,0.1c0,2.2-0.2,4.5-0.3,6.8
			c2.8,1.1,5.4,2.8,7.6,4.9c0.5-5,0.7-10,0.7-14.7c0.1-2-1.4-3.8-3.4-4.2C34.2,3.9,33,3.7,31.7,3.5L31.7,3.5z"/>
		<path d="M9.9,7l0.4,1.9L10,9l0.1,2.5c0,1.5,0.1,3,0.2,4.7c-0.6,0.3-1.3,0.6-1.9,1c-0.2-3-0.3-6-0.3-8.9V8.3l0-0.1
			c0-0.3,0.4-0.9,1-1l0.1,0l0.1,0C9.5,7.1,9.7,7,9.9,7 M12.3,3.5C11,3.7,9.8,3.9,8.6,4.2C6.5,4.6,5,6.5,5.1,8.4
			c0,4.7,0.2,9.6,0.7,14.5c2.2-2.1,4.8-3.7,7.6-4.7c-0.2-2.3-0.3-4.6-0.3-6.7c0.3,0,0.5-0.1,0.8-0.1L12.3,3.5L12.3,3.5z"/>
	</g>
</svg>