<svg fill="none" xmlns="http://www.w3.org/2000/svg" viewBox="0 0 24 20" height="20" width="24">
<path fill="currentColor" d="M12.1,5.9c0.8-1,1.2-2.2,1.2-3.4V0H0v2.6C0,3.8,0.4,5,1.2,5.9L3.8,9c0.5,0.6,0.5,1.4,0,1.9l-2.6,3.2C0.4,15.1,0,16.2,0,17.4
	V20h13.4v-2.6c0-1.2-0.4-2.4-1.2-3.3l-2.6-3.2c-0.5-0.6-0.5-1.4,0-1.9C9.5,9,12.1,5.9,12.1,5.9z M8.2,12l2.6,3.2
	c0.5,0.7,0.8,1.4,0.8,2.4h-0.9c-0.7-1.7-4.1-4.2-4.1-4.2s-3.5,2.5-4.1,4.2H1.7c0-0.9,0.3-1.7,0.8-2.4L5.1,12c1-1.2,1-2.9,0-4.1
	L2.5,4.9C2,4.2,1.7,3.4,1.7,2.5h10c0,0.9-0.3,1.7-0.9,2.4L8.3,7.9C7.3,9.1,7.3,10.8,8.2,12z"/>
<path fill="currentColor" d="M24,14h-3.6v-3.6H18V14h-3.6v2.4H18V20h2.4v-3.6H24V14z"/>
</svg>
