<svg enable-background="new 0 0 512 512" viewBox="0 0 512 512" xmlns="http://www.w3.org/2000/svg"><path d="m501.801 228.462h-16.726v-31.695c0-5.633-4.566-10.199-10.199-10.199h-52.629c-5.633 0-10.199 4.566-10.199 10.199v31.695h-51.754c-8.993 0-17.607 2.774-24.909 8.021l-32.469 23.33-28.696-20.619c-10.899-7.831-25.542-7.83-36.44 0l-28.696 20.619-31.47-22.611c-7.956-5.717-17.342-8.739-27.139-8.739h-50.523v-31.695c0-5.633-4.566-10.199-10.199-10.199h-52.629c-5.633 0-10.199 4.566-10.199 10.199v31.694h-16.726c-5.633 0-10.199 4.566-10.199 10.199v36.309c0 5.633 4.566 10.199 10.199 10.199h16.726v30.064c0 5.633 4.566 10.199 10.199 10.199h52.629c5.633 0 10.199-4.566 10.199-10.199v-30.064h50.523c5.501 0 10.769 1.697 15.237 4.907l22.599 16.238c12.425 8.927 29.12 8.927 41.545 0l26.144-18.786 26.144 18.784c6.212 4.463 13.493 6.695 20.773 6.695s14.56-2.232 20.773-6.695l23.599-16.956c3.814-2.741 8.311-4.188 13.006-4.188h51.754v30.064c0 5.633 4.566 10.199 10.199 10.199h52.629c5.633 0 10.199-4.566 10.199-10.199v-30.063h16.726c5.633 0 10.199-4.566 10.199-10.199v-36.309c-.001-5.633-4.567-10.199-10.2-10.199zm-474.876 36.309h-6.526v-15.911h6.526zm52.629 40.262h-32.23v-98.067h32.23zm332.494-40.262h-51.754v-.001c-8.992 0-17.606 2.773-24.909 8.021l-23.599 16.956c-5.306 3.811-12.436 3.811-17.741 0l-29.541-21.226c-5.087-3.656-11.922-3.654-17.008 0l-29.542 21.227c-5.306 3.811-12.436 3.811-17.742 0l-22.599-16.238c-7.956-5.717-17.342-8.739-27.139-8.739h-50.522v-15.911h50.523c5.501 0 10.769 1.697 15.237 4.907l33.554 24.109c5.873 4.219 13.763 4.219 19.635 0l30.782-22.117c3.777-2.716 8.854-2.716 12.634 0l30.781 22.117c5.873 4.219 13.763 4.219 19.636 0l34.554-24.827c3.813-2.741 8.31-4.188 13.006-4.188h51.754zm52.629 40.262h-32.231v-98.067h32.231zm26.925-40.262h-6.526v-15.911h6.526z"/><path d="m448.765 248.86c-5.633 0-10.199 4.566-10.199 10.199v30.598c0 5.633 4.566 10.199 10.199 10.199s10.199-4.566 10.199-10.199v-30.598c0-5.633-4.566-10.199-10.199-10.199z"/><path d="m448.765 218.262c-5.633 0-10.199 4.566-10.199 10.199v4.08c0 5.633 4.566 10.199 10.199 10.199s10.199-4.566 10.199-10.199v-4.08c0-5.632-4.566-10.199-10.199-10.199z"/></svg>