<?xml version="1.0" encoding="utf-8"?>
<!-- Generator: Adobe Illustrator 26.5.0, SVG Export Plug-In . SVG Version: 6.00 Build 0)  -->
<svg version="1.1" id="Calque_1" xmlns="http://www.w3.org/2000/svg" xmlns:xlink="http://www.w3.org/1999/xlink" x="0px" y="0px"
	 viewBox="0 0 459.1 1080" style="enable-background:new 0 0 459.1 1080;" xml:space="preserve">
<style type="text/css">
	.st0{fill:none;}
	.st1{fill-rule:evenodd;clip-rule:evenodd;fill:#333333;}
	.st2{fill-rule:evenodd;clip-rule:evenodd;fill:#404040;}
	.st3{fill-rule:evenodd;clip-rule:evenodd;fill:#595959;}
	.st4{fill-rule:evenodd;clip-rule:evenodd;fill:#262626;}
	.st5{fill-rule:evenodd;clip-rule:evenodd;fill:#4D4D4D;}
	.st6{fill:none;stroke:#000000;stroke-width:5.2174;stroke-linejoin:round;stroke-miterlimit:7.3785;}
</style>
<rect id="Artboard1" class="st0" width="459.1" height="1078.9"/>
<g id="Front-Muscles">
	<g id="Deltoids">
		<path class="st1" d="M186.2,199c0,0-64.9-37-91.4,18.1c-9.8,20.3-2.4,84.2-2.1,87.2c0.2,1.9,19.3-41.1,35.6-50.2
			C131.1,252.5,127.5,210.7,186.2,199z"/>
		<path class="st1" d="M273.7,199c0,0,64.9-37,91.4,18.1c9.8,20.3,2.4,84.2,2.1,87.2c-0.2,1.9-19.3-41.1-35.6-50.2
			C328.8,252.5,332.4,210.7,273.7,199L273.7,199z"/>
	</g>
	<g id="Biceps">
		<path class="st2" d="M131.6,255.3c0,0,5.8,87.6-1,91.5c-7.7,4.5-11.7,47.7-11.7,47.7s-3.9-11-8.3-10.5
			c-4.4,0.5-12.7,8.8-14.4,11.7C94.7,398.6,69.1,305.4,131.6,255.3L131.6,255.3z"/>
		<path class="st2" d="M331.5,266.6c0,0-5.8,87.6,1,91.5c7.7,4.5,11.7,47.7,11.7,47.7s3.9-11,8.3-10.5c4.4,0.5,12.7,8.8,14.4,11.7
			C368.4,409.9,394,316.7,331.5,266.6L331.5,266.6z"/>
	</g>
	<g id="Pectorals">
		<path class="st3" d="M219.4,209.3c-1.6,20.8,10.5,46.7,10.6,62.3c0.2,21.1-1.7,38.1-38.9,42.3c-29.9,3.3-36.6-9.1-46.3-15.2
			c-6-3.9-7.9-43.7-13.4-49.7c-3.8-4.1,20.8-46.5,54.9-46.2C220.3,203,219.8,204.9,219.4,209.3L219.4,209.3z"/>
		<path class="st3" d="M240.7,209.3c1.6,20.8-10.5,46.7-10.6,62.3c-0.2,21.1,1.7,38.1,38.9,42.3c29.9,3.3,36.6-9.1,46.3-15.2
			c6.1-3.9,7.9-43.7,13.4-49.7c3.8-4.1-20.8-46.5-54.9-46.2C239.8,203,240.4,204.9,240.7,209.3L240.7,209.3z"/>
	</g>
	<g id="Obliques">
		<path class="st4" d="M187.9,327.8c0,0,7.3,166,0,171.9c-7.3,5.9-8.8-33.1-35.4-37.5c-5-0.8-0.9-89.9-12.8-111.1
			C127.7,329.8,182.8,320.9,187.9,327.8L187.9,327.8z"/>
		<path class="st4" d="M270.9,327.8c0,0-7.3,166,0,171.9c7.3,5.9,8.8-33.1,35.4-37.5c5-0.8,0.9-89.9,12.8-111.1
			C331,329.8,275.9,320.9,270.9,327.8L270.9,327.8z"/>
	</g>
	<g id="Abs">
		<path class="st3" d="M231.4,314.5c0,0-30.7-9.7-44.7,7.7c-14,17.4,2.4,85-1.3,110.2c-3.7,25.1,17.2,129.4,27.8,133.4
			c6.6,2.5,11.2,3,18.6-0.5c6.6-3,37.2-72.4,41.2-133.5c1.9-28.3,25.3-113.4-15.6-119.5C233.7,308.6,231.4,314.5,231.4,314.5z"/>
	</g>
	<g id="Quads">
		<path class="st1" d="M164.5,500.3c0,0,57.8,123.3,53.6,181c-4.2,57.7-10.5,77.7-10.5,92.4c0,14.7,1.9-22-16.5-22
			c-21.6-0.1-37.7,17.4-43.5,36.6c-0.8,2.7-5.2-54.8-5.2-54.8s-7.4-15.9-12.4-69.1C122.3,583.9,183.7,554.8,164.5,500.3"/>
		<path class="st1" d="M293.9,500.3c0,0-57.8,123.3-53.6,181c4.2,57.7,10.5,77.7,10.5,92.4c0,14.7-1.9-22,16.5-22
			c21.6-0.1,37.7,17.4,43.5,36.6c0.8,2.7,5.2-54.8,5.2-54.8s7.4-15.9,12.5-69.1C336.2,583.9,274.8,554.8,293.9,500.3"/>
	</g>
	<g id="Adductors">
		<path class="st5" d="M181,490.2c0,0,22.1,61.1,30.7,77.5c12.8,24.4,20.1,44.1,18.2,47.2c-1.9,3.1-6.5,51.1-6.9,46.8
			c-2.5-31.4-38.9-153-44.8-161.3C174.9,495.7,180.9,490.1,181,490.2L181,490.2z"/>
		<path class="st5" d="M276.7,490.2c0,0-22.1,61.1-30.7,77.5c-12.8,24.4-20.1,44.1-18.2,47.2c1.9,3.1,6.5,51.1,6.9,46.8
			c2.5-31.4,38.9-153,44.8-161.3C282.8,495.7,276.7,490.1,276.7,490.2L276.7,490.2z"/>
	</g>
</g>
<path id="Front" class="st6" d="M229.9,616.5c-1.6,18.4,16.6,116.4,23.1,154.6c3.1,18.1,11.5,47.6,8.5,63.3
	c-4.3,21.8-5.6,50.1-3.2,66.6c1.5,10,6.2,56.1-0.5,73c-3.5,8.8-10,54.2-10,54.2c-16.9,42.7-7.4,40.6-7.4,40.6
	c5.2,6.4,14.2,0.5,14.2,0.5c6.8,4.4,11.6-1,11.6-1c5.9,4.9,12.7-0.6,12.7-0.6c7.4,3.8,14.2-3.2,14.2-3.2c4.2,2.1,5.3-0.6,5.3-0.6
	c12.7-0.8-7.1-41.4-7.1-41.4c-4.7-36.5,4.7-56.8,4.7-56.8c30.9-91.6,32.5-116,20.1-150.5c-3.5-10-4.4-13.9-2.8-18.2
	c3.7-10,1-50.2,5.5-66.1c8.7-30.8,17.3-108.8,21.8-145.2c6-49-21.3-114.8-21.3-114.8c-6-26.8,2.8-122.1,2.8-122.1
	c12.3,19.1,11.8,52.7,11.8,52.7c-1.9,35.3,28.5,89.3,28.5,89.3c14.6,22.3,20.2,43.5,20.2,45c0,6.4-1.4,22-1.4,22l0.6,13.5
	c0.3,3.4,2.2,15.3,1.9,21.1c-2.3,35.3,3.3,28.7,3.3,28.7c4.7,0,9.9-28.4,9.9-28.4c0,7.3-1.8,29.3,2.2,37.5c4.7,9.9,8.2-1.7,8.3-4
	c1.3-45,4-33.2,4-33.2c2.6,36.5,5.9,44.7,11.7,41.9c4.4-2.1,0.4-43.8,0.4-43.8c7.5,24.8,13.2,28.7,13.2,28.7
	c12.4,8.7,4.7-15.4,3-20.1c-9.2-25.3-9.5-34.1-9.5-34.1c11.5,22.8,20.1,21.9,20.1,21.9c11.2-3.6-9.8-35.8-22.1-51.2
	c-6.3-7.9-14.4-18.4-16.7-24.6c-3.8-10.6-6.7-44.6-6.7-44.6c-1.2-40.2-11.1-57.6-11.1-57.6c-17-27.2-20.2-77.9-20.2-77.9l-0.8-85.6
	c-6-58.4-49-58.8-49-58.8c-43.5-6.5-49.5-20.5-49.5-20.5c-9.2-13.3-3.9-38.7-3.9-38.7c7.6-6.2,10.6-22.7,10.6-22.7
	c12.7-9.7,12.1-24,6.2-23.8c-4.7,0.1-3.6-3.8-3.6-3.8c7.9-64.1-49-67.4-49-67.4h-8.7c0,0-56.9,3.3-49,67.4c0,0,1.1,3.9-3.7,3.8
	c-5.8-0.2-6.4,14.1,6.3,23.8c0,0,2.9,16.5,10.6,22.7c0,0,5.3,25.4-3.9,38.7c0,0-6,14.1-49.5,20.5c0,0-43.1,0.4-49,58.8l-0.8,85.6
	c0,0-3.1,50.7-20.2,77.9c0,0-9.9,17.5-11,57.6c0,0-2.9,34.1-6.7,44.6c-2.3,6.2-10.4,16.8-16.7,24.6c-12.4,15.4-33.2,47.6-22.1,51.2
	c0,0,8.7,0.8,20.1-21.9c0,0-0.2,8.7-9.4,34.1c-1.8,4.7-9.5,28.8,2.9,20.1c0,0,5.7-3.9,13.2-28.7c0,0-4,41.7,0.4,43.8
	c5.8,2.9,9-5.4,11.6-41.9c0,0,2.7-11.8,3.9,33.2c0.1,2.3,3.5,13.9,8.2,4c4-8.3,2.2-30.2,2.2-37.5c0,0,5.1,28.4,9.9,28.4
	c0,0,5.7,6.6,3.3-28.7c-0.4-5.8,1.6-17.6,1.9-21.1l0.5-13.5c0,0-1.4-15.5-1.4-22c0-1.6,5.6-22.7,20.2-45c0,0,30.4-54,28.5-89.3
	c0,0-0.4-33.7,11.8-52.7c0,0,8.7,95.4,2.8,122.1c0,0-27.4,65.8-21.3,114.8c4.5,36.5,13,114.5,21.8,145.2c4.6,15.9,1.9,56.1,5.5,66.1
	c1.6,4.4,0.8,8.4-2.8,18.2c-12.3,34.5-10.7,58.9,20.2,150.5c0,0,9.5,20.3,4.7,56.8c0,0-19.7,40.6-7.1,41.4c0,0,1,2.7,5.3,0.6
	c0,0,6.8,7,14.2,3.2c0,0,6.8,5.5,12.7,0.6c0,0,4.7,5.4,11.5,1c0,0,9,6,14.3-0.5c0,0,9.5,2.1-7.4-40.6c0,0-6.5-45.3-10-54.2
	c-6.8-16.9-2-63.1-0.5-73c2.3-16.5,1.1-44.7-3.2-66.6c-3.1-15.6,5.3-45.2,8.4-63.3C213.3,732.9,229.9,616.5,229.9,616.5L229.9,616.5
	z"/>
</svg>
