<?xml version="1.0" encoding="utf-8"?>
<!-- Generator: Adobe Illustrator 26.5.0, SVG Export Plug-In . SVG Version: 6.00 Build 0)  -->
<svg version="1.1" id="Capa_1" xmlns="http://www.w3.org/2000/svg" xmlns:xlink="http://www.w3.org/1999/xlink" x="0px" y="0px"
	 viewBox="0 0 462.6 462.6" style="enable-background:new 0 0 462.6 462.6;" xml:space="preserve">
<g>
	<path d="M360.2,151.7v3.7v25h25h10.5v14.4v25h25h11.4l5.4,4.8v13.3l-5.4,4.8h-11.4h-25v25v14.4h-10.5h-25v25v3.7h-28.1v-43.1v-25
		h-25H155.5h-25v25v43.1h-28.1v-3.7v-25h-25H66.8v-14.4v-25h-25H30.4l-5.4-4.8v-13.3l5.4-4.8h11.4h25v-25v-14.4h10.5h25v-25v-3.7
		h28.1v43.1v25h25h151.6h25v-25v-43.1H360.2 M370.2,126.7h-48.1c-8.3,0-15,6.7-15,15v53.1H155.5v-53.1c0-8.3-6.7-15-15-15H92.3
		c-8.3,0-15,6.7-15,15v13.7H56.8c-8.3,0-15,6.7-15,15v24.4H25.9c-2.9,0-6.4,1.3-8.6,3.2L4,209.8c-2.3,2-4,5.6-4,8.7V244
		c0,3.1,1.6,6.7,4,8.7l13.4,11.8c2.2,1.9,5.7,3.2,8.6,3.2h15.9v24.4c0,8.3,6.7,15,15,15h20.5v13.7c0,8.3,6.7,15,15,15h48.1
		c8.3,0,15-6.7,15-15v-53.1h151.6v53.1c0,8.3,6.7,15,15,15h48.1c8.3,0,15-6.7,15-15v-13.7h20.5c8.3,0,15-6.7,15-15v-24.4h15.9
		c2.9,0,6.4-1.3,8.6-3.2l13.4-11.8c2.3-2,4-5.6,4-8.7v-25.4c0-3.1-1.6-6.7-4-8.7l-13.4-11.8c-2.2-1.9-5.7-3.2-8.6-3.2h-15.9v-24.4
		c0-8.3-6.7-15-15-15h-20.5v-13.7C385.2,133.4,378.5,126.7,370.2,126.7L370.2,126.7z"/>
</g>
</svg>
