<?xml version="1.0" encoding="iso-8859-1"?>
<!-- Generator: Adobe Illustrator 19.0.0, SVG Export Plug-In . SVG Version: 6.00 Build 0)  -->
<svg version="1.1" id="Layer_1" xmlns="http://www.w3.org/2000/svg" xmlns:xlink="http://www.w3.org/1999/xlink" x="0px" y="0px"
	 viewBox="0 0 503.61 503.61" style="enable-background:new 0 0 503.61 503.61;" xml:space="preserve">
<g transform="translate(-1)">
	<g>
		<g>
			<path d="M202.601,95.929c0.856,4.214,4.801,7.067,9.031,6.681c12.834-1.234,27.455-1.922,41.161-1.922
				c13.48,0,26.548,0.68,41.145,2.107c0.277,0.025,0.562,0.042,0.831,0.042c3.945,0,7.42-2.778,8.217-6.715l16.787-82.6
				c0.47-2.308-0.05-4.709-1.435-6.606c-1.377-1.905-3.5-3.139-5.833-3.408C291.596,1.116,272.627,0,252.794,0
				c-20.027,0-40.675,1.142-59.694,3.29c-2.342,0.269-4.457,1.502-5.842,3.408c-1.385,1.905-1.905,4.297-1.444,6.606L202.601,95.929
				z"/>
			<path d="M261.644,151.371c-50.847-2.879-99.127,14.848-135.839,49.614c-37.183,35.219-57.663,83.07-57.663,134.757
				c0,64.68,34.665,125.465,90.465,158.636c10.181,6.035,22.142,9.233,34.606,9.233H312.39c12.456,0,24.408-3.19,34.556-9.216
				c56.706-33.674,91.379-95.442,90.506-161.171C436.185,238.167,357.32,156.583,261.644,151.371z M324.653,406.053
				c-8.486,8.662-20.514,13.623-33.02,13.623h-77.648c-12.615,0-24.794-5.103-33.431-14.017
				c-30.057-31.014-37.015-76.204-17.735-115.124c14.21-28.68,41.489-48.909,72.964-54.104c29.578-4.885,59.484,3.307,82.088,22.494
				c22.654,19.213,35.647,47.213,35.647,76.817C353.518,362.08,343.27,387.05,324.653,406.053z"/>
			<path d="M307.013,271.717c-15.259-12.943-34.547-19.884-54.44-19.884c-4.667,0-9.367,0.386-14.059,1.158
				c-26.154,4.323-48.833,21.143-60.651,45.006c-16.09,32.457-10.299,70.136,14.747,95.971c5.489,5.674,13.278,8.922,21.378,8.922
				h77.639c8.024,0,15.687-3.131,21.034-8.587c15.293-15.612,24.072-36.965,24.072-58.561
				C336.735,311.074,325.899,287.74,307.013,271.717z"/>
			<path d="M325.591,148.756c23.804,9.619,45.526,23.669,64.059,41.061c3.836-42.244,5.884-84.161,5.867-124.534
				c1.15-16.711-11.608-32.39-29.083-35.731c-10.45-2.317-21-4.255-31.576-5.959l-13.446,66.182
				c2.266,0.386,4.608,0.747,6.799,1.141C327.815,109.659,326.925,128.847,325.591,148.756z"/>
			<path d="M115.831,187.446c18.894-17.526,40.658-30.989,64.168-39.986c-1.335-19.85-2.233-38.652-2.619-56.597
				c2.207-0.411,4.549-0.789,6.815-1.192l-13.446-66.224c-10.685,1.737-21.202,3.718-31.341,6.085
				c-17.542,3.282-30.384,18.986-29.251,35.177C110.157,104.796,112.138,145.982,115.831,187.446z"/>
		</g>
	</g>
</g>
<g>
</g>
<g>
</g>
<g>
</g>
<g>
</g>
<g>
</g>
<g>
</g>
<g>
</g>
<g>
</g>
<g>
</g>
<g>
</g>
<g>
</g>
<g>
</g>
<g>
</g>
<g>
</g>
<g>
</g>
</svg>
